<svg width="11" height="15" viewBox="0 0 11 15" fill="none" xmlns="http://www.w3.org/2000/svg">
<mask id="path-1-outside-1_504_1860" maskUnits="userSpaceOnUse" x="0" y="-0.73822" width="11" height="15" fill="black">
<rect fill="white" y="-0.73822" width="11" height="15"/>
<path d="M2.53294 10.6486C2.52994 10.6318 2.55214 10.5586 2.54914 10.5418C2.74414 9.95381 2.90914 9.59621 3.10894 9.04181C3.27634 8.59721 3.37894 8.07702 3.56254 7.62942C3.61294 7.51722 3.90334 6.87822 3.99514 6.70602C4.32214 6.07842 4.60954 5.42261 4.97254 4.80581C4.98934 4.80281 4.99475 4.73261 4.99175 4.71581C4.99175 4.71581 4.96955 4.68461 4.95275 4.68761C4.93595 4.69061 4.84894 4.68821 4.82914 4.67381C3.92434 4.86281 2.97214 4.97261 2.05054 5.06021C1.94614 5.06021 1.52255 5.11541 1.48475 4.89581L1.00775 2.60142C0.936345 2.28402 1.37734 2.22641 1.56034 2.17781L7.56814 1.00002C7.96714 1.00122 7.98754 1.22321 8.18794 1.48421C8.19094 1.50101 8.30914 1.58501 8.31514 1.61861C8.58094 2.05901 8.60494 2.60982 8.68534 3.08142C8.72554 3.31782 8.61095 3.45822 8.50775 3.66702C8.23175 4.39002 8.02834 4.92762 7.66834 5.66502C6.91834 6.76362 6.57155 8.08901 5.99075 9.26261C5.99075 9.26261 5.99375 9.27941 5.99675 9.29681C6.01115 9.38081 6.11494 9.38021 6.16834 9.38861C6.25234 9.37421 6.58954 9.31721 6.67414 9.30281C6.98614 9.24941 7.29214 9.16362 7.59514 9.07302C7.74874 9.02682 7.90234 8.97942 8.05654 8.93442C8.13094 8.91282 8.21195 8.87922 8.28875 8.86902C8.34575 8.86182 8.41294 8.86842 8.47114 8.87142C8.63194 8.88102 8.79034 8.92901 8.92834 9.01181C9.03994 9.07901 9.13775 9.16781 9.21575 9.27161C9.25475 9.32321 9.29494 9.38142 9.31834 9.44202C9.33634 9.48642 9.34114 9.53862 9.35254 9.58602C9.40414 9.79962 9.45634 10.0126 9.50794 10.2262C9.59614 10.5916 9.71674 10.963 9.77614 11.3338C9.81874 11.599 9.82774 11.8768 9.57814 12.0496C9.35014 12.2074 9.03814 12.196 8.77414 12.2212C8.45854 12.2506 8.14294 12.2782 7.83094 12.3316C7.71274 12.3514 7.34194 12.4144 7.30834 12.4204C7.17574 12.4432 7.04374 12.4834 6.91294 12.5146C6.27034 12.667 5.62714 12.82 4.98394 12.9724C4.68994 13.0426 4.39594 13.1122 4.10194 13.1824C4.00894 13.204 3.91594 13.225 3.82354 13.2484C3.62674 13.2976 3.38374 13.2028 3.21634 13.0966C2.89834 12.8944 2.85814 12.559 2.79934 12.2164C2.79694 12.199 2.70214 11.6428 2.66794 11.4406C2.64754 11.323 2.55574 10.7836 2.53294 10.6486"/>
</mask>
<path d="M2.53294 10.6486C2.52994 10.6318 2.55214 10.5586 2.54914 10.5418C2.74414 9.95381 2.90914 9.59621 3.10894 9.04181C3.27634 8.59721 3.37894 8.07702 3.56254 7.62942C3.61294 7.51722 3.90334 6.87822 3.99514 6.70602C4.32214 6.07842 4.60954 5.42261 4.97254 4.80581C4.98934 4.80281 4.99475 4.73261 4.99175 4.71581C4.99175 4.71581 4.96955 4.68461 4.95275 4.68761C4.93595 4.69061 4.84894 4.68821 4.82914 4.67381C3.92434 4.86281 2.97214 4.97261 2.05054 5.06021C1.94614 5.06021 1.52255 5.11541 1.48475 4.89581L1.00775 2.60142C0.936345 2.28402 1.37734 2.22641 1.56034 2.17781L7.56814 1.00002C7.96714 1.00122 7.98754 1.22321 8.18794 1.48421C8.19094 1.50101 8.30914 1.58501 8.31514 1.61861C8.58094 2.05901 8.60494 2.60982 8.68534 3.08142C8.72554 3.31782 8.61095 3.45822 8.50775 3.66702C8.23175 4.39002 8.02834 4.92762 7.66834 5.66502C6.91834 6.76362 6.57155 8.08901 5.99075 9.26261C5.99075 9.26261 5.99375 9.27941 5.99675 9.29681C6.01115 9.38081 6.11494 9.38021 6.16834 9.38861C6.25234 9.37421 6.58954 9.31721 6.67414 9.30281C6.98614 9.24941 7.29214 9.16362 7.59514 9.07302C7.74874 9.02682 7.90234 8.97942 8.05654 8.93442C8.13094 8.91282 8.21195 8.87922 8.28875 8.86902C8.34575 8.86182 8.41294 8.86842 8.47114 8.87142C8.63194 8.88102 8.79034 8.92901 8.92834 9.01181C9.03994 9.07901 9.13775 9.16781 9.21575 9.27161C9.25475 9.32321 9.29494 9.38142 9.31834 9.44202C9.33634 9.48642 9.34114 9.53862 9.35254 9.58602C9.40414 9.79962 9.45634 10.0126 9.50794 10.2262C9.59614 10.5916 9.71674 10.963 9.77614 11.3338C9.81874 11.599 9.82774 11.8768 9.57814 12.0496C9.35014 12.2074 9.03814 12.196 8.77414 12.2212C8.45854 12.2506 8.14294 12.2782 7.83094 12.3316C7.71274 12.3514 7.34194 12.4144 7.30834 12.4204C7.17574 12.4432 7.04374 12.4834 6.91294 12.5146C6.27034 12.667 5.62714 12.82 4.98394 12.9724C4.68994 13.0426 4.39594 13.1122 4.10194 13.1824C4.00894 13.204 3.91594 13.225 3.82354 13.2484C3.62674 13.2976 3.38374 13.2028 3.21634 13.0966C2.89834 12.8944 2.85814 12.559 2.79934 12.2164C2.79694 12.199 2.70214 11.6428 2.66794 11.4406C2.64754 11.323 2.55574 10.7836 2.53294 10.6486" fill="white"/>
<path d="M2.54914 10.5418L1.56471 10.7176L1.52012 10.4678L1.59998 10.227L2.54914 10.5418ZM3.10894 9.04181L2.16817 8.70277L2.17058 8.69609L2.17308 8.68944L3.10894 9.04181ZM3.56254 7.62942L2.63735 7.24992L2.6436 7.23468L2.65035 7.21966L3.56254 7.62942ZM3.99514 6.70602L4.88202 7.16811L4.87758 7.17644L3.99514 6.70602ZM4.97254 4.80581L4.11072 4.29861L4.34399 3.90223L4.79675 3.82138L4.97254 4.80581ZM4.99175 4.71581L5.8065 4.136L5.9367 4.31896L5.97617 4.54002L4.99175 4.71581ZM4.82914 4.67381L4.62467 3.69494L5.05871 3.60427L5.41731 3.86507L4.82914 4.67381ZM2.05054 5.06021L2.14517 6.05572L2.09796 6.06021H2.05054V5.06021ZM1.48475 4.89581L2.46381 4.69226L2.46732 4.70916L2.47025 4.72617L1.48475 4.89581ZM1.00775 2.60142L1.98337 2.38195L1.98515 2.3899L1.98681 2.39787L1.00775 2.60142ZM1.56034 2.17781L1.30367 1.21131L1.33557 1.20284L1.36796 1.19649L1.56034 2.17781ZM7.56814 1.00002L7.37576 0.0186956L7.47253 -0.000276303L7.57115 2.02851e-05L7.56814 1.00002ZM8.18794 1.48421L8.98111 0.875205L9.12953 1.06851L9.17237 1.30842L8.18794 1.48421ZM8.31514 1.61861L7.45899 2.13534L7.36328 1.97675L7.33071 1.7944L8.31514 1.61861ZM8.68534 3.08142L9.67112 2.91336L9.67119 2.91377L8.68534 3.08142ZM8.50775 3.66702L7.5735 3.31038L7.59034 3.26626L7.61127 3.22393L8.50775 3.66702ZM7.66834 5.66502L8.56697 6.10373L8.53514 6.16892L8.49424 6.22884L7.66834 5.66502ZM5.99075 9.26261L5.00633 9.43845L4.94842 9.11424L5.09449 8.81907L5.99075 9.26261ZM5.99675 9.29681L6.98221 9.1269L6.98237 9.12785L5.99675 9.29681ZM6.16834 9.38861L6.33731 10.3742L6.17531 10.402L6.01295 10.3765L6.16834 9.38861ZM6.67414 9.30281L6.84284 10.2885L6.84194 10.2886L6.67414 9.30281ZM7.59514 9.07302L7.88318 10.0306L7.88162 10.0311L7.59514 9.07302ZM8.05654 8.93442L7.7764 7.97446L7.77773 7.97407L8.05654 8.93442ZM8.28875 8.86902L8.15709 7.8777L8.16343 7.8769L8.28875 8.86902ZM8.47114 8.87142L8.52262 7.87271L8.53074 7.8732L8.47114 8.87142ZM8.92834 9.01181L9.44284 8.15432L9.44419 8.15513L8.92834 9.01181ZM9.21575 9.27161L8.41797 9.87458L8.4163 9.87235L9.21575 9.27161ZM9.31834 9.44202L8.3916 9.81772L8.38847 9.81L8.38547 9.80223L9.31834 9.44202ZM9.35254 9.58602L8.3805 9.82083L8.38027 9.81985L9.35254 9.58602ZM9.50794 10.2262L10.48 9.99139L10.48 9.99157L9.50794 10.2262ZM9.77614 11.3338L8.7888 11.4924L8.78873 11.492L9.77614 11.3338ZM9.57814 12.0496L10.1474 12.8718L10.1472 12.8719L9.57814 12.0496ZM8.77414 12.2212L8.86916 13.2167L8.8669 13.2169L8.77414 12.2212ZM7.83094 12.3316L7.99964 13.3173L7.99615 13.3179L7.83094 12.3316ZM7.30834 12.4204L7.48414 13.4049L7.4778 13.406L7.30834 12.4204ZM6.91294 12.5146L7.14496 13.4873L7.1437 13.4876L6.91294 12.5146ZM4.98394 12.9724L4.75169 11.9998L4.75338 11.9994L4.98394 12.9724ZM4.10194 13.1824L4.33419 14.1551L4.32818 14.1565L4.10194 13.1824ZM3.82354 13.2484L4.06904 14.2178L4.06608 14.2186L3.82354 13.2484ZM3.21634 13.0966L2.68064 13.941L2.67978 13.9405L3.21634 13.0966ZM2.79934 12.2164L1.81375 12.3856L1.81097 12.3694L1.80872 12.3531L2.79934 12.2164ZM2.66794 11.4406L3.65323 11.2697L3.65394 11.2738L2.66794 11.4406ZM1.54851 10.8244C1.54115 10.7832 1.53741 10.7474 1.53538 10.7196C1.53333 10.6914 1.5327 10.6668 1.53266 10.6468C1.53259 10.6079 1.53472 10.5757 1.5366 10.554C1.54024 10.5117 1.54576 10.4773 1.54877 10.4596C1.55215 10.4397 1.55553 10.4227 1.55768 10.4122C1.55986 10.4015 1.56204 10.3913 1.56305 10.3866C1.56369 10.3836 1.56406 10.3818 1.56438 10.3803C1.56468 10.3789 1.56475 10.3785 1.56469 10.3788C1.56463 10.3791 1.56431 10.3807 1.56382 10.3832C1.56335 10.3857 1.56255 10.39 1.56159 10.3957C1.5602 10.4039 1.5559 10.4296 1.55288 10.4646C1.55132 10.4827 1.54935 10.5116 1.54942 10.5476C1.54946 10.5661 1.55004 10.5894 1.552 10.6163C1.55393 10.6428 1.55754 10.6774 1.56471 10.7176L3.53357 10.366C3.54093 10.4073 3.54468 10.443 3.5467 10.4708C3.54876 10.499 3.54938 10.5237 3.54942 10.5436C3.5495 10.5825 3.54736 10.6147 3.54549 10.6364C3.54184 10.6787 3.53632 10.7131 3.53332 10.7308C3.52993 10.7507 3.52655 10.7677 3.5244 10.7783C3.52222 10.7889 3.52005 10.7991 3.51903 10.8039C3.51839 10.8069 3.51803 10.8086 3.5177 10.8101C3.5174 10.8115 3.51733 10.8119 3.51739 10.8116C3.51745 10.8113 3.51778 10.8097 3.51826 10.8072C3.51873 10.8047 3.51953 10.8004 3.52049 10.7948C3.52188 10.7866 3.52618 10.7608 3.5292 10.7258C3.53076 10.7077 3.53273 10.6788 3.53266 10.6428C3.53262 10.6244 3.53205 10.6011 3.53008 10.5741C3.52815 10.5476 3.52454 10.513 3.51737 10.4728L1.54851 10.8244ZM1.59998 10.227C1.78922 9.65638 2.00978 9.14227 2.16817 8.70277L4.04971 9.38085C3.8085 10.0502 3.69906 10.2512 3.49831 10.8566L1.59998 10.227ZM2.17308 8.68944C2.23941 8.51327 2.2947 8.31719 2.36868 8.06016C2.43723 7.82198 2.52216 7.53076 2.63735 7.24992L4.48774 8.00892C4.41933 8.17568 4.36116 8.36835 4.29066 8.61332C4.22558 8.83943 4.14587 9.12575 4.0448 9.39418L2.17308 8.68944ZM2.65035 7.21966C2.69352 7.12356 3.00087 6.44537 3.1127 6.23559L4.87758 7.17644C4.84795 7.23203 4.76564 7.40535 4.67086 7.61018C4.58199 7.80223 4.49834 7.98663 4.47474 8.03917L2.65035 7.21966ZM3.1083 6.24394C3.38857 5.70603 3.73595 4.9354 4.11072 4.29861L5.83437 5.31301C5.48314 5.90982 5.25571 6.4508 4.88198 7.16809L3.1083 6.24394ZM4.79675 3.82138C4.46084 3.88137 4.26745 4.08737 4.1903 4.18611C4.10839 4.29095 4.06775 4.38741 4.0509 4.43079C4.01559 4.52168 4.00429 4.59378 4.00116 4.61419C3.99645 4.64483 3.99411 4.67236 3.99312 4.69797C3.99307 4.69925 3.98792 4.78298 4.00732 4.8916L5.97617 4.54002C5.99707 4.65703 5.99237 4.75584 5.99163 4.7751C5.98995 4.8187 5.98576 4.86712 5.97798 4.91778C5.97177 4.95821 5.95616 5.04947 5.91521 5.1549C5.89554 5.20555 5.85174 5.30811 5.76633 5.41743C5.68568 5.52065 5.48845 5.7295 5.14833 5.79024L4.79675 3.82138ZM4.99175 4.71581C4.177 5.29562 4.17711 5.29578 4.17722 5.29594C4.17726 5.296 4.17738 5.29616 4.17745 5.29626C4.17761 5.29648 4.17776 5.29669 4.17791 5.29691C4.17822 5.29734 4.17853 5.29777 4.17884 5.2982C4.17945 5.29906 4.18008 5.29993 4.18071 5.3008C4.18196 5.30254 4.18324 5.30431 4.18455 5.30609C4.18716 5.30966 4.18991 5.31336 4.19279 5.31718C4.19849 5.32471 4.20511 5.33323 4.21264 5.34249C4.22615 5.35907 4.24953 5.38659 4.28213 5.41822C4.30933 5.44462 4.37496 5.50561 4.47521 5.56207C4.56034 5.61002 4.80294 5.73018 5.12854 5.67204L4.77695 3.70319C5.11095 3.64354 5.36262 3.76648 5.45665 3.81944C5.56578 3.8809 5.64011 3.94913 5.67496 3.98295C5.71521 4.02201 5.74519 4.05713 5.76339 4.07948C5.77327 4.09161 5.78175 4.10254 5.78872 4.11177C5.79225 4.11644 5.79549 4.1208 5.79843 4.12483C5.79991 4.12684 5.80132 4.12878 5.80266 4.13064C5.80333 4.13157 5.80398 4.13248 5.80462 4.13337C5.80494 4.13382 5.80526 4.13426 5.80557 4.1347C5.80573 4.13492 5.80588 4.13514 5.80604 4.13535C5.80611 4.13546 5.80623 4.13562 5.80627 4.13567C5.80638 4.13584 5.8065 4.136 4.99175 4.71581ZM5.12854 5.67204C5.02515 5.6905 4.93349 5.68876 4.92649 5.68874C4.89126 5.68865 4.85347 5.68722 4.81533 5.68429C4.78032 5.68159 4.7249 5.67614 4.66146 5.66366C4.6511 5.66163 4.44205 5.62879 4.24097 5.48254L5.41731 3.86507C5.3003 3.77997 5.19371 3.74268 5.15616 3.73014C5.10709 3.71375 5.06787 3.70528 5.04743 3.70126C5.00639 3.69319 4.97749 3.69085 4.96881 3.69018C4.95699 3.68928 4.94534 3.68879 4.93177 3.68875C4.925 3.68873 4.91241 3.68881 4.89548 3.68962C4.88884 3.68994 4.84005 3.69192 4.77695 3.70319L5.12854 5.67204ZM5.03361 5.65268C4.07271 5.8534 3.07566 5.96728 2.14517 6.05572L1.95592 4.0647C2.86863 3.97794 3.77598 3.87222 4.62467 3.69494L5.03361 5.65268ZM2.05054 6.06021C2.16836 6.06021 1.81742 6.07468 1.63296 6.05432C1.51598 6.04141 1.30571 6.00782 1.09187 5.89001C0.846431 5.75479 0.572059 5.4885 0.499239 5.06545L2.47025 4.72617C2.44658 4.58863 2.38807 4.45716 2.30043 4.34618C2.21674 4.24019 2.12474 4.17561 2.05697 4.13827C1.99052 4.10166 1.93585 4.08474 1.90697 4.07716C1.87688 4.06925 1.85717 4.06692 1.85238 4.0664C1.84575 4.06566 1.85574 4.06705 1.89172 4.06591C1.90843 4.06538 1.92422 4.06458 1.94796 4.0634C1.96089 4.06275 2.00705 4.06021 2.05054 4.06021V6.06021ZM0.50568 5.09935L0.02868 2.80496L1.98681 2.39787L2.46381 4.69226L0.50568 5.09935ZM0.0321258 2.82089C-0.0418799 2.4919 0.0105478 2.14433 0.208445 1.85008C0.381075 1.5934 0.610827 1.45755 0.752755 1.38881C0.992041 1.27292 1.34785 1.19958 1.30367 1.21131L1.81702 3.14431C1.77562 3.1553 1.73098 3.16553 1.70769 3.17094C1.67795 3.17786 1.65772 3.18265 1.639 3.18753C1.59632 3.19866 1.59959 3.20089 1.62453 3.18881C1.64226 3.18023 1.76371 3.12133 1.86802 2.96624C1.92442 2.88238 1.96869 2.78028 1.98865 2.6657C2.00834 2.55266 1.99971 2.45459 1.98337 2.38195L0.0321258 2.82089ZM1.36796 1.19649L7.37576 0.0186956L7.76052 1.98134L1.75273 3.15913L1.36796 1.19649ZM7.57115 2.02851e-05C7.76145 0.000592629 7.97268 0.0274295 8.18431 0.114149C8.40601 0.204996 8.57102 0.338062 8.69339 0.473047C8.80002 0.590669 8.87652 0.71452 8.90821 0.764719C8.95105 0.832564 8.96443 0.853488 8.98111 0.875205L7.39477 2.09322C7.31125 1.98443 7.24693 1.87973 7.21711 1.83251C7.19915 1.80407 7.19249 1.79402 7.18904 1.78909C7.18655 1.78552 7.19455 1.79748 7.21164 1.81633C7.22979 1.83635 7.25816 1.86418 7.29741 1.89281C7.33742 1.92199 7.38102 1.94639 7.42596 1.9648C7.51528 2.0014 7.57433 2.00004 7.56513 2.00001L7.57115 2.02851e-05ZM9.17237 1.30842C9.15177 1.1931 9.11505 1.10552 9.09087 1.0549C9.06519 1.00116 9.03939 0.9597 9.02157 0.933003C8.98702 0.881236 8.95533 0.844698 8.94128 0.828892C8.92473 0.810288 8.91122 0.796655 8.90422 0.789718C8.89663 0.782188 8.89095 0.776875 8.88849 0.774594C8.88436 0.770758 8.88294 0.769596 8.88952 0.775401C8.89274 0.778238 8.90558 0.789516 8.91524 0.79811C8.92634 0.80799 8.94199 0.822066 8.95916 0.838258C8.97575 0.853903 8.99935 0.876773 9.02515 0.904493C9.04835 0.929413 9.08964 0.975561 9.13214 1.03738C9.15404 1.06924 9.18367 1.11592 9.21245 1.17522C9.23999 1.23199 9.27833 1.32386 9.29957 1.44282L7.33071 1.7944C7.35121 1.90917 7.38791 1.99644 7.41307 2.04828C7.43945 2.10265 7.46593 2.14407 7.48401 2.17038C7.51889 2.22111 7.54994 2.25505 7.56116 2.26711C7.57499 2.28197 7.58489 2.29132 7.58693 2.29325C7.58956 2.29572 7.58983 2.29588 7.58559 2.29211C7.57991 2.28706 7.57747 2.28495 7.56633 2.27512C7.55855 2.26826 7.54372 2.25515 7.52799 2.24055C7.51973 2.23289 7.50871 2.22249 7.49634 2.21023C7.48456 2.19856 7.46684 2.18055 7.44677 2.15797C7.42918 2.13819 7.39464 2.0981 7.35803 2.04324C7.33918 2.01499 7.31254 1.97211 7.28624 1.91706C7.26143 1.86514 7.22429 1.77638 7.20351 1.66L9.17237 1.30842ZM9.17129 1.10189C9.39055 1.46518 9.49169 1.84251 9.55114 2.14619C9.58116 2.29957 9.60305 2.4485 9.62105 2.57538C9.64019 2.71034 9.65406 2.81329 9.67112 2.91336L7.69957 3.24948C7.67643 3.11374 7.65714 2.97099 7.64087 2.85628C7.62345 2.73349 7.60765 2.62876 7.5884 2.53044C7.5493 2.33072 7.50553 2.21245 7.45899 2.13534L9.17129 1.10189ZM9.67119 2.91377C9.72826 3.24939 9.66889 3.53211 9.578 3.75794C9.53865 3.8557 9.49461 3.93952 9.46721 3.99093C9.43333 4.05452 9.421 4.07616 9.40422 4.1101L7.61127 3.22393C7.63043 3.18515 7.64871 3.15028 7.66401 3.12157C7.6716 3.1073 7.67898 3.09358 7.68524 3.08196C7.69181 3.06973 7.6971 3.05989 7.70216 3.05041C7.71233 3.03133 7.718 3.02025 7.72165 3.01279C7.7251 3.00575 7.72476 3.00593 7.72264 3.0112C7.71776 3.02332 7.70493 3.05857 7.69805 3.10955C7.69468 3.13451 7.69319 3.1599 7.69367 3.18495C7.69414 3.20986 7.69651 3.23149 7.6995 3.24906L9.67119 2.91377ZM9.44199 4.02366C9.16647 4.74539 8.9489 5.3214 8.56697 6.10373L6.76972 5.2263C7.10778 4.53383 7.29702 4.03464 7.5735 3.31038L9.44199 4.02366ZM8.49424 6.22884C8.18053 6.68836 7.93827 7.21456 7.69095 7.816C7.45583 8.38778 7.19793 9.07787 6.887 9.70616L5.09449 8.81907C5.36436 8.27376 5.57026 7.71435 5.84124 7.05538C6.10001 6.42608 6.40616 5.74027 6.84245 5.10119L8.49424 6.22884ZM5.99075 9.26261C6.97516 9.08678 6.97517 9.08678 6.97517 9.08678C6.97517 9.08678 6.97517 9.08679 6.97517 9.08679C6.97517 9.08679 6.97517 9.0868 6.97517 9.0868C6.97517 9.08681 6.97517 9.08682 6.97518 9.08684C6.97518 9.08686 6.97518 9.08689 6.97519 9.08692C6.9752 9.08699 6.97522 9.08707 6.97523 9.08717C6.97527 9.08736 6.97532 9.08762 6.97537 9.08794C6.97549 9.08858 6.97564 9.08946 6.97584 9.09054C6.97622 9.09272 6.97676 9.09575 6.9774 9.09937C6.97866 9.10651 6.9804 9.11645 6.98221 9.1269L5.01129 9.46672C5.01009 9.45977 5.00883 9.45261 5.00784 9.447C5.00736 9.44425 5.00696 9.442 5.00669 9.44048C5.00655 9.43972 5.00645 9.43915 5.00639 9.4388C5.00636 9.43863 5.00634 9.43851 5.00633 9.43845C5.00632 9.43842 5.00632 9.4384 5.00632 9.4384C5.00632 9.4384 5.00632 9.43841 5.00632 9.43842C5.00632 9.43842 5.00632 9.43843 5.00632 9.43843C5.00632 9.43843 5.00632 9.43844 5.00632 9.43844C5.00632 9.43844 5.00633 9.43845 5.00633 9.43845C5.00633 9.43845 5.00633 9.43845 5.99075 9.26261ZM6.98237 9.12785C6.94907 8.93362 6.85234 8.75398 6.70866 8.61831C6.5798 8.49664 6.44925 8.44394 6.38232 8.42177C6.31472 8.39938 6.26384 8.39278 6.25927 8.39214C6.25593 8.39167 6.25317 8.39137 6.26469 8.39274C6.27037 8.39342 6.29584 8.39637 6.32374 8.40076L6.01295 10.3765C6.02749 10.3788 6.03804 10.3799 6.02776 10.3787C6.02333 10.3781 6.00359 10.3758 5.98278 10.3729C5.94329 10.3674 5.85554 10.3541 5.75352 10.3204C5.65217 10.2868 5.48963 10.218 5.33559 10.0725C5.16673 9.91307 5.05162 9.70199 5.01112 9.46577L6.98237 9.12785ZM5.99938 8.40299C6.08347 8.38858 6.42526 8.33079 6.50634 8.31699L6.84194 10.2886C6.75382 10.3036 6.42121 10.3599 6.33731 10.3742L5.99938 8.40299ZM6.50544 8.31714C6.7542 8.27457 7.01156 8.20377 7.30866 8.11493L7.88162 10.0311C7.57272 10.1235 7.21809 10.2243 6.84284 10.2885L6.50544 8.31714ZM7.30711 8.1154C7.45124 8.07204 7.61729 8.02089 7.7764 7.97446L8.33669 9.89438C8.1874 9.93794 8.04624 9.98159 7.88318 10.0306L7.30711 8.1154ZM7.77773 7.97407C7.77723 7.97422 7.77858 7.97383 7.78263 7.97255C7.78678 7.97123 7.79219 7.96948 7.80037 7.96678C7.81278 7.96269 7.843 7.95259 7.87034 7.94395C7.92431 7.92689 8.03042 7.89454 8.15709 7.87772L8.4204 9.86031C8.44846 9.85658 8.46764 9.85201 8.4746 9.85026C8.48152 9.84852 8.48251 9.84798 8.47315 9.85094C8.46134 9.85467 8.45256 9.85766 8.42646 9.86626C8.40544 9.87319 8.37218 9.88407 8.33535 9.89476L7.77773 7.97407ZM8.16343 7.8769C8.27069 7.86335 8.3639 7.86518 8.41555 7.86704C8.44372 7.86806 8.46922 7.86955 8.48638 7.87058C8.50747 7.87186 8.51393 7.8723 8.52262 7.87274L8.41966 9.87009C8.40815 9.8695 8.39742 9.86887 8.38871 9.86834C8.38434 9.86808 8.38002 9.86781 8.3763 9.86759C8.37241 9.86735 8.36909 9.86714 8.36583 9.86695C8.35933 9.86655 8.3546 9.86628 8.35068 9.86608C8.34682 9.86588 8.34457 9.86578 8.34344 9.86574C8.34064 9.86564 8.3457 9.8659 8.35587 9.86567C8.36123 9.86555 8.36882 9.86528 8.37828 9.86463C8.38771 9.86399 8.39979 9.86294 8.41407 9.86113L8.16343 7.8769ZM8.53074 7.8732C8.84807 7.89214 9.16317 7.98651 9.44284 8.15432L8.41385 9.8693C8.41633 9.87079 8.41697 9.87079 8.41568 9.87039C8.41436 9.86999 8.41278 9.86971 8.41155 9.86964L8.53074 7.8732ZM9.44419 8.15513C9.6675 8.28959 9.86112 8.46584 10.0152 8.67087L8.4163 9.87235C8.41554 9.87134 8.4146 9.87031 8.41363 9.86944C8.41268 9.86857 8.41219 9.86831 8.41249 9.86849L9.44419 8.15513ZM10.0135 8.66865C10.0603 8.73053 10.1742 8.88242 10.2512 9.0818L8.38547 9.80223C8.40328 9.84834 8.42059 9.87655 8.42476 9.88322C8.42928 9.89046 8.4293 9.88955 8.41798 9.87458L10.0135 8.66865ZM10.2451 9.06631C10.2907 9.17886 10.3109 9.27847 10.3187 9.31792C10.321 9.32946 10.323 9.33985 10.3243 9.34695C10.326 9.35576 10.3264 9.35829 10.3273 9.36261C10.3287 9.37013 10.3276 9.36376 10.3248 9.35218L8.38027 9.81985C8.37587 9.80157 8.37229 9.78515 8.36946 9.77152C8.36665 9.75799 8.36431 9.74595 8.36259 9.73692C8.36172 9.73235 8.36092 9.72811 8.36028 9.72465C8.35996 9.72293 8.35963 9.7212 8.35936 9.71976C8.35908 9.71825 8.35884 9.71695 8.3586 9.71571C8.35763 9.7105 8.35725 9.70859 8.35711 9.70786C8.357 9.70732 8.35745 9.70959 8.35836 9.71367C8.35929 9.71779 8.3609 9.7247 8.36328 9.73364C8.36566 9.74259 8.36901 9.75436 8.37354 9.76828C8.37807 9.78221 8.38398 9.79892 8.3916 9.81772L10.2451 9.06631ZM10.3246 9.3512C10.3502 9.45707 10.3759 9.56292 10.4019 9.6697C10.4278 9.77621 10.454 9.88366 10.48 9.99139L8.5359 10.461C8.51033 10.3552 8.48457 10.2493 8.45859 10.1425C8.43267 10.036 8.40653 9.92857 8.38051 9.82083L10.3246 9.3512ZM10.48 9.99157C10.5417 10.2472 10.697 10.7604 10.7636 11.1756L8.78873 11.492C8.73645 11.1657 8.65055 10.936 8.53586 10.4609L10.48 9.99157ZM10.7635 11.1752C10.8047 11.4317 10.9426 12.3212 10.1474 12.8718L9.00893 11.2274C8.96217 11.2598 8.91075 11.3099 8.86913 11.3774C8.82883 11.4428 8.81145 11.5021 8.80433 11.5395C8.79777 11.574 8.79982 11.5901 8.79926 11.5776C8.7987 11.565 8.79638 11.5396 8.7888 11.4924L10.7635 11.1752ZM10.1472 12.8719C9.84998 13.0776 9.53916 13.1452 9.33173 13.175C9.17785 13.1971 8.8873 13.215 8.86916 13.2167L8.67912 11.2257C8.76147 11.2179 8.8559 11.2122 8.90861 11.2084C8.97322 11.2039 9.01478 11.2 9.04755 11.1953C9.11912 11.185 9.07831 11.1794 9.00904 11.2273L10.1472 12.8719ZM8.8669 13.2169C8.53911 13.2474 8.26583 13.2717 7.99964 13.3173L7.66224 11.3459C8.02005 11.2847 8.37798 11.2538 8.68139 11.2255L8.8669 13.2169ZM7.99615 13.3179C7.93834 13.3276 7.81714 13.3481 7.70544 13.3671C7.64977 13.3765 7.59687 13.3855 7.55591 13.3925C7.53541 13.396 7.51811 13.399 7.50504 13.4012C7.49849 13.4024 7.49323 13.4033 7.48928 13.4039C7.48479 13.4047 7.48354 13.405 7.48413 13.4048L7.13255 11.436C7.17253 11.4289 7.5491 11.3649 7.66573 11.3454L7.99615 13.3179ZM7.4778 13.406C7.38233 13.4224 7.36179 13.4356 7.14496 13.4873L6.68092 11.5419C6.72569 11.5312 6.96915 11.4641 7.13888 11.4349L7.4778 13.406ZM7.1437 13.4876C6.5025 13.6397 5.85732 13.7932 5.2145 13.9455L4.75338 11.9994C5.39696 11.8469 6.03818 11.6943 6.68218 11.5416L7.1437 13.4876ZM5.21619 13.9451C5.06864 13.9803 4.92117 14.0154 4.77425 14.0503C4.62717 14.0853 4.48064 14.1201 4.33419 14.1551L3.86969 12.2098C4.01724 12.1745 4.16471 12.1395 4.31163 12.1045C4.45871 12.0696 4.60524 12.0347 4.75169 11.9998L5.21619 13.9451ZM4.32818 14.1565C4.22699 14.18 4.14886 14.1976 4.06904 14.2178L3.57805 12.279C3.68302 12.2524 3.7909 12.228 3.8757 12.2083L4.32818 14.1565ZM4.06608 14.2186C3.73585 14.3011 3.43461 14.2505 3.23034 14.1912C3.01746 14.1295 2.82889 14.0351 2.68064 13.941L3.75204 12.2522C3.7591 12.2567 3.76808 12.2617 3.77708 12.2659C3.7863 12.2702 3.79021 12.2712 3.7875 12.2704C3.78541 12.2698 3.76824 12.2648 3.7374 12.2627C3.70654 12.2606 3.65145 12.2607 3.58101 12.2783L4.06608 14.2186ZM2.67978 13.9405C1.91758 13.4558 1.85033 12.5987 1.81375 12.3856L3.78493 12.0473C3.78889 12.0703 3.79277 12.0933 3.79626 12.114C3.79985 12.1353 3.80313 12.1546 3.80638 12.1734C3.81293 12.2111 3.81858 12.2418 3.82413 12.2688C3.83555 12.3244 3.84352 12.3489 3.84663 12.3571C3.84875 12.3628 3.84275 12.345 3.82246 12.3182C3.80046 12.2891 3.77453 12.2665 3.75291 12.2528L2.67978 13.9405ZM1.80872 12.3531C1.81087 12.3686 1.809 12.3564 1.79659 12.2829C1.7869 12.2256 1.77382 12.1485 1.75968 12.0652C1.73151 11.8993 1.69912 11.7089 1.68194 11.6074L3.65394 11.2738C3.67096 11.3745 3.70308 11.5633 3.73145 11.7304C3.74559 11.8137 3.75879 11.8915 3.76863 11.9497C3.77574 11.9917 3.78662 12.0555 3.78996 12.0798L1.80872 12.3531ZM1.68266 11.6115C1.66185 11.4916 1.56974 10.9504 1.5469 10.8151L3.51898 10.4821C3.54174 10.6169 3.63323 11.1544 3.65323 11.2697L1.68266 11.6115Z" fill="#171A21" mask="url(#path-1-outside-1_504_1860)"/>
</svg>
