<svg width="240" height="240" viewBox="0 0 240 240" fill="none" xmlns="http://www.w3.org/2000/svg">
<path d="M123.329 182.852C73.4418 182.852 33 177.445 33 170.774C33 168.857 36.339 167.045 42.2822 165.435C44.3434 168.719 49.1636 171.397 57.1123 171.397H75.5856C76.3428 171.7 77.1204 171.974 77.9184 172.22C81.2778 173.258 85.0026 173.774 89.0184 173.774C93.9606 173.774 99.3426 172.992 105.023 171.434C107.387 172.805 110.894 173.609 115.312 173.758C115.322 173.758 115.333 173.758 115.345 173.758H186.291C195.272 173.758 201.513 171.515 203.865 167.442C204.221 166.823 204.481 166.177 204.644 165.509C210.419 167.1 213.658 168.886 213.658 170.774C213.658 177.445 173.216 182.852 123.329 182.852" fill="#666BCB"/>
<path d="M90.6366 170.422H57.1123C37.0723 170.422 37.0723 152.595 57.1123 152.595H78.3048L90.6366 170.422" fill="#60547B"/>
<path d="M71.6184 169.448H57.1123C49.0492 169.448 44.3454 166.398 43.2869 162.996C45.7783 164.468 49.3468 165.427 53.9959 165.427H66.417C67.9866 166.979 69.7212 168.321 71.6184 169.448" fill="#433B78"/>
<path d="M43.2498 162.871C43.1215 162.42 43.0572 161.964 43.0572 161.508C43.0572 157.563 47.885 153.57 57.1122 153.57H58.9952C59.1258 153.917 59.2596 154.259 59.3973 154.598H58.2456C48.708 154.598 43.7094 158.638 43.2498 162.871" fill="#B7B2C3"/>
<path d="M187.691 172.765C187.235 172.779 186.767 172.784 186.291 172.784H115.346C114.722 172.765 114.122 172.728 113.543 172.682C92.7594 170.997 101.732 153.014 139.274 154.309L105.022 131.012C107.243 128.728 109.566 126.638 111.965 124.742C120.403 118.076 129.761 113.823 138.912 111.985C150.415 109.67 161.583 111.169 170.162 116.478C180.166 122.66 186.648 134.018 186.039 150.538C187.541 150.737 188.969 151.028 190.315 151.397C191.442 151.706 192.51 152.068 193.513 152.476C207.231 158.06 209.254 172.184 187.691 172.765" fill="white"/>
<path d="M135.432 154.392C123.907 154.392 116.459 156.28 112.114 157.959C106.428 160.155 102.932 163.23 102.761 166.185C102.567 169.545 106.703 171.978 113.556 172.533C114.2 172.584 114.787 172.617 115.35 172.635H186.291C186.804 172.635 187.261 172.628 187.686 172.615H187.687C196.968 172.365 202.776 169.554 203.622 164.902C204.434 160.435 200.254 155.382 193.456 152.616C192.446 152.205 191.375 151.843 190.275 151.542C188.905 151.167 187.473 150.879 186.019 150.687L185.884 150.669L185.889 150.533C186.451 135.3 180.838 123.251 170.083 116.605C161.638 111.379 150.578 109.79 138.941 112.132C129.49 114.031 120.194 118.432 112.058 124.86C109.688 126.732 107.4 128.793 105.254 130.989L139.788 154.477L139.27 154.459C137.944 154.414 136.664 154.392 135.432 154.392V154.392ZM186.291 172.935H115.345C114.773 172.917 114.181 172.883 113.532 172.832C106.499 172.262 102.257 169.708 102.461 166.167C102.639 163.092 106.207 159.919 112.006 157.678C116.78 155.835 125.279 153.737 138.763 154.143L104.789 131.036L104.914 130.908C107.105 128.655 109.446 126.541 111.872 124.624C120.044 118.168 129.385 113.746 138.883 111.838C150.594 109.481 161.731 111.083 170.241 116.35C181.059 123.035 186.722 135.126 186.194 150.408C187.615 150.601 189.013 150.885 190.354 151.252C191.467 151.557 192.548 151.922 193.57 152.337C200.5 155.158 204.755 160.348 203.917 164.956C203.044 169.76 197.131 172.661 187.695 172.915H187.696C187.267 172.928 186.807 172.935 186.291 172.935" fill="#171A21"/>
<path d="M90.6366 171.397H57.1123C46.1158 171.397 41.1074 166.271 41.1074 161.509C41.1074 156.746 46.1158 151.62 57.1123 151.62H78.3048C78.8436 151.62 79.2798 152.056 79.2798 152.595C79.2798 153.133 78.8436 153.57 78.3048 153.57H57.1123C47.8851 153.57 43.0572 157.564 43.0572 161.509C43.0572 165.454 47.8851 169.448 57.1123 169.448H90.6366C91.1748 169.448 91.6116 169.884 91.6116 170.422C91.6116 170.961 91.1748 171.397 90.6366 171.397" fill="#171A21"/>
<path d="M154.183 150.232C152.846 155.372 149.46 163.514 144.281 168.243L130.798 161.509C130.798 161.509 117.541 154.547 117.918 151.589C118.244 149.031 113.796 130.429 111.965 124.742C113.49 123.538 115.042 122.413 116.621 121.368C123.777 116.62 131.413 113.492 138.912 111.985C138.988 111.97 139.875 112.138 141.209 112.639C146.995 114.815 161.198 123.263 154.183 150.232" fill="#60547B"/>
<path d="M171.79 119.243C165.644 115.155 158.065 113.11 149.939 113.11C147.755 113.11 145.534 113.257 143.289 113.552C142.525 113.168 141.821 112.868 141.209 112.639C141.159 112.62 141.109 112.601 141.06 112.583C143.831 112.13 146.559 111.907 149.216 111.907C157.493 111.907 165.074 114.078 171.067 118.234C171.292 118.534 171.534 118.871 171.79 119.243" fill="white"/>
<path d="M133.304 115.81C133.173 115.601 133.041 115.396 132.907 115.19C133.093 114.921 133.272 114.653 133.444 114.385C135.319 113.804 137.209 113.321 139.104 112.94C139.758 112.808 140.41 112.69 141.06 112.583C141.109 112.601 141.159 112.62 141.209 112.639C141.821 112.868 142.525 113.168 143.289 113.552C142.072 113.713 140.848 113.916 139.62 114.163C137.521 114.585 135.411 115.134 133.304 115.81" fill="#B7B2C3"/>
<path d="M147.576 155.499C147.31 155.499 147.04 155.476 146.768 155.428C145.421 155.191 143.883 154.948 142.234 154.741C141.695 154.508 141.117 154.36 140.519 154.31C140.515 153.792 140.103 153.364 139.58 153.344C138.207 153.294 136.856 153.269 135.525 153.269C135.278 153.269 135.031 153.269 134.786 153.271C140.248 145.505 141.339 136.329 138.026 125.975C137.311 123.74 136.436 121.6 135.419 119.567C146.624 125.276 151.959 135.914 152.164 150.856C152.2 153.455 150.076 155.499 147.576 155.499" fill="#433B78"/>
<path d="M183.356 132.556L179.786 127.048L175.789 120.883C179.69 118.353 183.203 118.469 185.495 119.951C189.238 122.368 189.728 128.428 183.356 132.556Z" fill="#60547B"/>
<path d="M177.904 121.681C177.725 121.481 177.542 121.283 177.358 121.087C178.866 120.284 180.355 119.871 181.745 119.871C182.042 119.871 182.335 119.89 182.622 119.927C183.783 120.08 184.805 120.539 185.598 121.25C185.586 121.366 185.569 121.483 185.547 121.599C184.567 121.028 183.383 120.699 182.056 120.699C180.787 120.699 179.386 121.001 177.904 121.681" fill="#B7B2C3"/>
<path d="M186.04 151.513C186.028 151.513 186.015 151.513 186.003 151.513C185.465 151.493 185.045 151.04 185.065 150.502C185.546 137.458 181.538 126.94 173.474 120.084C164.977 112.859 152.449 110.255 139.104 112.94C129.779 114.814 120.604 119.159 112.57 125.507C110.182 127.393 107.878 129.474 105.72 131.692C105.345 132.077 104.728 132.086 104.342 131.711C103.956 131.335 103.947 130.718 104.323 130.333C106.539 128.054 108.907 125.916 111.361 123.977C119.635 117.44 129.095 112.963 138.72 111.029C152.654 108.226 165.782 110.984 174.737 118.598C183.273 125.855 187.518 136.912 187.013 150.574C186.994 151.1 186.562 151.513 186.04 151.513" fill="#171A21"/>
<path d="M106.34 97.569C118.027 74.5656 148.653 94.0506 132.298 116.039L106.34 97.569Z" fill="#60547B"/>
<path d="M132.907 115.19C131.388 112.862 129.67 110.711 127.784 108.75C132.255 105.567 134.439 100.743 134.537 95.9585C135.353 97.0469 136.039 98.2475 136.563 99.5417C136.144 97.7903 135.441 96.1691 134.516 94.7165C134.516 94.7159 134.516 94.7153 134.516 94.7141C134.669 94.9559 134.817 95.2019 134.958 95.4521C134.959 95.4545 134.961 95.4569 134.962 95.4587C134.963 95.4599 134.963 95.4599 134.963 95.4611C137.88 100.643 138.057 107.742 132.907 115.19" fill="#433B78"/>
<path d="M108.614 97.1665C108.016 96.9949 107.412 96.8371 106.806 96.6925C110.522 90.0037 115.925 87.2275 121.136 87.2275C122.873 87.2275 124.59 87.5365 126.215 88.1107C126.216 88.1113 126.217 88.1113 126.217 88.1119C126.221 88.1131 126.225 88.1143 126.229 88.1155C126.232 88.1167 126.236 88.1179 126.238 88.1191C126.241 88.1197 126.242 88.1203 126.245 88.1215C129.593 89.3125 132.553 91.6345 134.516 94.7167C134.539 95.1295 134.546 95.5441 134.537 95.9587C131.539 91.9597 126.784 89.4805 121.857 89.4805C117.135 89.4805 112.254 91.7605 108.614 97.1665" fill="#B7B2C3"/>
<path d="M72.054 105.649C52.5559 93.5778 31.0225 121.066 57.2082 135.07L72.054 105.649Z" fill="#60547B"/>
<path d="M46.2445 124.249C44.5582 120.253 44.8052 116.171 46.3823 112.648C46.3835 112.645 46.3858 112.64 46.3871 112.637C46.3878 112.636 46.3884 112.634 46.389 112.633C48.9594 106.907 55.0402 102.661 62.0364 102.661C62.0682 102.661 62.0988 102.661 62.1306 102.661C65.0424 102.678 68.1108 103.43 71.148 105.117C70.5996 105.578 70.0626 106.055 69.5388 106.545C67.275 105.649 65.0238 105.243 62.8584 105.243C52.4788 105.243 44.114 114.594 46.2445 124.249" fill="#B7B2C3"/>
<path d="M59.2017 151.193C66.3216 173.449 86.493 176.414 108.004 169.532C129.514 162.65 144.218 148.528 137.098 126.272C129.977 104.017 106.768 91.5534 85.2576 98.4354C63.747 105.317 52.0816 128.937 59.2017 151.193" fill="white"/>
<path d="M59.3445 151.147C62.6802 161.573 69.0408 168.301 78.2502 171.146C86.3112 173.636 96.5832 173.028 107.957 169.389C119.332 165.75 128.049 160.282 133.168 153.576C139.016 145.914 140.29 136.743 136.955 126.317C129.871 104.176 106.7 91.7322 85.3032 98.5782C74.9388 101.894 66.531 109.187 61.6278 119.115C56.7236 129.045 55.9128 140.42 59.3445 151.147V151.147ZM89.0196 172.951C85.0872 172.951 81.444 172.446 78.162 171.432C68.853 168.557 62.4258 161.763 59.0588 151.238C55.6033 140.438 56.4201 128.982 61.3584 118.982C66.2982 108.981 74.7696 101.633 85.212 98.292C106.767 91.3956 130.107 103.928 137.24 126.226C140.608 136.75 139.318 146.014 133.406 153.758C128.25 160.513 119.482 166.017 108.049 169.675C101.238 171.854 94.815 172.951 89.0196 172.951" fill="#171A21"/>
<path d="M89.022 171.827C85.2036 171.827 81.6702 171.339 78.4938 170.357C74.3076 169.064 70.7262 166.94 67.7676 164.003C71.1402 165.048 74.7876 165.535 78.6234 165.535C84.6018 165.535 91.0362 164.352 97.5942 162.254C119.104 155.372 133.808 141.25 126.687 118.993C124.747 112.927 121.61 107.589 117.638 103.17C126.1 108.193 132.891 116.322 136.169 126.569C139.418 136.723 138.187 145.64 132.512 153.076C132.45 153.157 132.388 153.238 132.325 153.319C125.621 153.529 119.581 154.411 114.587 155.923C108.712 157.702 104.461 160.302 102.619 163.244C101.465 165.088 101.32 167.022 102.208 168.692C102.441 169.13 102.737 169.542 103.094 169.928C98.1024 171.192 93.3762 171.827 89.022 171.827" fill="#B2B2D4"/>
<path d="M60.1302 150.896C63.3786 161.049 69.5568 167.597 78.4938 170.357C86.3928 172.798 96.4938 172.19 107.706 168.604C118.919 165.016 127.496 159.647 132.512 153.076C138.187 145.64 139.418 136.723 136.169 126.569C129.224 104.861 106.517 92.6567 85.5546 99.3635C75.405 102.611 67.1706 109.755 62.367 119.48C57.5584 129.217 56.764 140.374 60.1302 150.896V150.896ZM89.0184 173.774C85.0026 173.774 81.2778 173.258 77.9184 172.22C68.337 169.261 61.7268 162.286 58.2731 151.49C54.7521 140.484 55.5853 128.81 60.6192 118.617C65.6586 108.413 74.3028 100.916 84.9606 97.5065C106.949 90.4721 130.754 103.243 138.026 125.975C141.48 136.771 140.146 146.287 134.062 154.259C128.803 161.149 119.895 166.751 108.301 170.461C101.409 172.665 94.902 173.774 89.0184 173.774" fill="#171A21"/>
<path d="M132.297 117.014C132.095 117.014 131.891 116.951 131.716 116.821C131.284 116.5 131.194 115.889 131.516 115.457C137.958 106.796 136.121 99.9126 134.453 96.5802C131.914 91.5072 126.702 88.2186 121.177 88.2024C121.163 88.2024 121.148 88.2024 121.134 88.2024C115.367 88.2024 110.423 91.6836 107.209 98.0106C106.965 98.4906 106.379 98.682 105.899 98.4384C105.419 98.1942 105.227 97.6074 105.471 97.1274C108.983 90.2142 114.691 86.253 121.136 86.253C121.151 86.253 121.166 86.253 121.183 86.253C127.437 86.2716 133.331 89.9826 136.197 95.7078C139.377 102.06 138.241 109.682 133.08 116.621C132.889 116.878 132.595 117.014 132.297 117.014Z" fill="#171A21"/>
<path d="M57.2073 136.045C57.0522 136.045 56.8949 136.007 56.7486 135.929C48.6768 131.612 44.1891 125.525 44.1121 118.789C44.0441 112.853 47.4705 107.207 53.0544 104.054C59.1295 100.625 66.2418 100.904 72.567 104.82C73.0248 105.103 73.1665 105.704 72.8833 106.162C72.5995 106.62 71.9988 106.76 71.541 106.478C65.8386 102.947 59.4497 102.683 54.013 105.752C49.0486 108.555 46.0019 113.542 46.0616 118.767C46.1302 124.76 50.2521 130.244 57.6679 134.21C58.1428 134.464 58.3218 135.055 58.0679 135.529C57.8923 135.857 57.5555 136.045 57.2073 136.045" fill="#171A21"/>
<path d="M90.6366 100.061C84.9954 88.7028 74.7528 96.5244 82.3014 102.133Z" fill="white"/>
<path d="M82.212 102.253C80.046 100.644 79.0962 98.6741 79.6062 96.8483C80.0244 95.3501 81.393 94.2779 83.0928 94.1171C85.9386 93.8495 88.8096 96.0449 90.771 99.9935L90.5022 100.127C88.5984 96.2939 85.8402 94.1585 83.121 94.4159C81.546 94.5653 80.28 95.5511 79.8948 96.9287C79.4202 98.6285 80.3304 100.481 82.3908 102.012L82.212 102.253" fill="#171A21"/>
<path d="M80.7179 100.626C73.5185 97.2276 71.1839 106.36 79.8641 105.44Z" fill="white"/>
<path d="M78.7158 105.653C76.5624 105.653 74.9754 104.95 74.3694 103.685C73.9032 102.713 74.1246 101.56 74.9328 100.747C76.2114 99.4608 78.3984 99.3648 80.7816 100.49L80.6538 100.762C78.39 99.693 76.3314 99.7668 75.1458 100.958C74.4282 101.68 74.2296 102.7 74.6394 103.555C75.2934 104.918 77.241 105.567 79.8486 105.292L79.8804 105.59C79.4766 105.632 79.0878 105.653 78.7158 105.653" fill="#171A21"/>
<path d="M77.3736 105.406C71.7744 109.442 77.8404 114.119 80.3664 108.403Z" fill="white"/>
<path d="M77.2207 111.214C77.1631 111.214 77.1055 111.212 77.0473 111.208C76.0783 111.141 75.2809 110.498 75.0163 109.57C74.6239 108.193 75.4723 106.591 77.2855 105.284L77.4613 105.527C75.7549 106.757 74.9485 108.238 75.3049 109.487C75.5341 110.293 76.2265 110.85 77.0683 110.909C78.2989 110.991 79.4815 110.035 80.2291 108.343L80.5033 108.464C79.7365 110.2 78.5191 111.214 77.2207 111.214" fill="#171A21"/>
<path d="M82.3009 103.108C82.0987 103.108 81.8947 103.045 81.7201 102.915C79.3015 101.118 78.2137 98.7672 78.8119 96.6264C79.3225 94.797 80.9725 93.4896 83.0149 93.2964C86.2117 92.9928 89.3905 95.3598 91.5097 99.627C91.7491 100.109 91.5523 100.694 91.0705 100.934C90.5881 101.173 90.0031 100.976 89.7637 100.495C88.0177 96.9786 85.5625 95.0166 83.1985 95.2374C81.9667 95.3538 80.9815 96.105 80.6899 97.1508C80.3119 98.5032 81.1111 100.034 82.8829 101.35C83.3149 101.671 83.4049 102.281 83.0839 102.714C82.8925 102.971 82.5985 103.108 82.3009 103.108" fill="#171A21"/>
<path d="M78.6582 106.483C75.2016 106.483 73.9986 104.82 73.6254 104.041C73.0068 102.751 73.2906 101.23 74.3478 100.166C75.8838 98.6208 78.4206 98.463 81.1338 99.744C81.621 99.9738 81.8292 100.555 81.5994 101.042C81.3696 101.529 80.7888 101.738 80.3016 101.507C78.024 100.432 76.4472 100.82 75.7308 101.54C75.2556 102.018 75.1224 102.654 75.3834 103.199C75.7662 103.997 77.1162 104.751 79.7616 104.471C80.2986 104.415 80.7768 104.803 80.8338 105.338C80.8902 105.873 80.5026 106.353 79.9668 106.41C79.4982 106.46 79.0626 106.483 78.6582 106.483" fill="#171A21"/>
<path d="M77.2241 112.039C77.1461 112.039 77.0687 112.036 76.9901 112.031C75.6701 111.94 74.5835 111.062 74.2229 109.796C73.7309 108.071 74.6957 106.134 76.8035 104.615C77.2397 104.3 77.8493 104.399 78.1643 104.836C78.4787 105.272 78.3803 105.882 77.9435 106.197C76.2803 107.395 75.8999 108.566 76.0979 109.261C76.2311 109.728 76.6343 110.052 77.1251 110.086C77.9939 110.146 78.8729 109.37 79.4741 108.01C79.6919 107.517 80.2667 107.294 80.7599 107.512C81.2525 107.729 81.4751 108.305 81.2573 108.797C80.3531 110.845 78.8579 112.039 77.2241 112.039" fill="#171A21"/>
<path d="M89.292 141.778C89.9292 143.77 92.7714 145.836 95.2116 145.055C97.6524 144.275 98.7666 140.942 98.1294 138.95C97.4922 136.959 95.3436 137.059 92.9034 137.84C90.4626 138.62 88.6548 139.786 89.292 141.778" fill="#171A21"/>
<path d="M105.021 154.924C104.599 156.61 102.817 158.072 100.443 158.972C98.4797 159.718 96.5615 159.902 95.1479 159.386C94.2245 159.049 93.5159 158.414 93.1475 157.443C92.2157 154.981 94.0883 151.989 97.3325 150.759C100.576 149.53 103.962 150.53 104.894 152.995C105.143 153.655 105.174 154.304 105.021 154.924" fill="#171A21"/>
<path d="M105.022 154.924C104.599 156.61 102.817 158.072 100.443 158.972C98.4798 159.718 96.5616 159.902 95.148 159.386C95.5248 157.528 97.1508 155.729 99.4854 154.845C101.477 154.088 103.523 154.176 105.022 154.924" fill="#FF2C4B"/>
<path d="M95.7246 143.404L96.3342 147.618C96.357 147.778 96.2466 147.926 96.087 147.949C95.9604 147.967 95.841 147.901 95.7852 147.794L93.8358 144.008C93.5814 143.515 93.7752 142.909 94.269 142.654C94.7628 142.4 95.3688 142.594 95.6232 143.087C95.6754 143.188 95.709 143.298 95.7246 143.404" fill="#171A21"/>
<path d="M96.4001 130.698C101.353 132.661 105.168 136.802 108.127 142.585C108.955 144.205 110.713 145.124 112.522 144.924C121.627 143.917 125.269 132.554 117.757 123.542C107.941 111.907 94.2923 117.908 93.6899 126.368C93.5561 128.239 94.6559 130.007 96.4001 130.698" fill="#60547B"/>
<path d="M86.8656 134.228C83.9724 138.701 83.2698 144.287 84.2172 150.714C84.4824 152.514 83.5842 154.283 81.9948 155.17C73.9962 159.635 64.4359 152.496 65.3215 140.797C66.5611 125.625 81.1584 122.589 86.5596 129.129C87.7542 130.575 87.885 132.653 86.8656 134.228" fill="#60547B"/>
<path d="M107.282 135.386C106.113 135.386 104.877 134.961 103.779 133.915C103.42 133.571 103.406 133.002 103.748 132.642C104.092 132.282 104.661 132.268 105.021 132.611C106.493 134.015 108.172 133.684 109.163 132.974C110.078 132.319 110.883 130.985 110.141 129.383C109.932 128.932 110.128 128.397 110.579 128.188C111.031 127.979 111.565 128.175 111.774 128.626C112.901 131.059 111.802 133.298 110.211 134.438C109.404 135.016 108.372 135.386 107.282 135.386" fill="#171A21"/>
<path d="M76.9854 145.601C75.345 145.601 73.809 144.865 72.8352 143.52C72.5436 143.117 72.6336 142.555 73.0362 142.263C73.4388 141.972 74.0016 142.061 74.2932 142.464C75.3162 143.878 77.0754 144.026 78.3642 143.546C79.5432 143.107 80.748 142.001 80.5932 140.214C80.55 139.719 80.9166 139.283 81.4116 139.24C81.9066 139.196 82.3434 139.563 82.386 140.059C82.5858 142.36 81.2538 144.391 78.993 145.233C78.327 145.481 77.6478 145.601 76.9854 145.601" fill="#171A21"/>
<path d="M100.126 151.207C99.3252 151.207 98.4912 151.363 97.677 151.671C96.3066 152.19 95.178 153.073 94.5006 154.156C93.876 155.154 93.7194 156.199 94.0602 157.099C94.377 157.935 95.0628 158.451 96.0978 158.632C97.197 158.825 98.6178 158.622 100.098 158.061C101.579 157.499 102.777 156.71 103.473 155.838C104.128 155.017 104.3 154.176 103.983 153.34H103.982C103.642 152.44 102.833 151.761 101.703 151.427C101.205 151.28 100.673 151.207 100.126 151.207ZM96.9732 160.654C96.552 160.654 96.147 160.621 95.7618 160.553C94.0506 160.253 92.799 159.272 92.2374 157.789C91.6752 156.307 91.8918 154.649 92.8476 153.122C93.75 151.679 95.22 150.517 96.9864 149.848C98.7534 149.179 100.624 149.075 102.256 149.557C103.984 150.068 105.244 151.166 105.806 152.649H105.806C106.368 154.131 106.081 155.696 104.997 157.054C104.074 158.212 102.618 159.191 100.789 159.884C99.4428 160.394 98.1462 160.654 96.9732 160.654" fill="#171A21"/>
<path d="M145.068 157.549C149.018 166.379 144.356 171.456 131.084 172.784H115.346C92.2296 172.008 100.729 152.89 139.544 154.318C141.889 154.09 144.106 155.398 145.068 157.549" fill="#60547B"/>
<path d="M103.634 166.962C103.466 166.125 103.679 165.226 104.272 164.279C105.841 161.773 109.806 159.407 115.153 157.789C120.748 156.094 127.725 155.218 135.515 155.218C136.824 155.218 138.156 155.243 139.508 155.293C139.52 155.293 139.533 155.293 139.546 155.293C139.644 155.293 139.739 155.279 139.828 155.252C139.53 155.95 138.835 156.437 138.029 156.437C138.018 156.437 138.007 156.437 137.996 156.437C137.384 156.427 136.777 156.421 136.181 156.421C116.509 156.421 105.595 161.941 103.634 166.962" fill="#B7B2C3"/>
<path d="M186.291 172.784H182.016C182.016 172.784 168.485 161.885 182.016 150.538C182.132 150.442 182.245 150.346 182.353 150.25C205.449 150.864 214.518 172.784 186.291 172.784" fill="#60547B"/>
<path d="M195.823 156.13C192.107 153.694 186.902 151.955 180.667 151.769C180.868 151.582 181.073 151.394 181.287 151.207C181.308 151.208 181.329 151.209 181.351 151.209C186.928 151.208 191.603 152.462 195.154 154.303C195.427 154.836 195.652 155.453 195.823 156.13" fill="#B7B2C3"/>
<path d="M186.291 173.758H115.345C115.333 173.758 115.322 173.758 115.312 173.758C108.478 173.528 103.824 171.73 102.208 168.692C101.32 167.022 101.465 165.088 102.619 163.244C104.461 160.302 108.712 157.702 114.587 155.923C121.326 153.882 129.969 152.991 139.58 153.344C140.117 153.364 140.538 153.816 140.518 154.354C140.498 154.892 140.051 155.313 139.508 155.293C130.109 154.947 121.688 155.81 115.153 157.789C109.806 159.407 105.841 161.773 104.272 164.279C103.481 165.541 103.366 166.718 103.929 167.776C105.166 170.101 109.439 171.608 115.361 171.809H186.291C194.426 171.809 200.216 169.862 202.177 166.467C203.235 164.633 203.111 162.399 201.828 160.176C199.251 155.713 191.92 151.208 181.351 151.209C180.812 151.209 180.376 150.772 180.376 150.234C180.376 149.696 180.812 149.259 181.351 149.259C192.697 149.259 200.659 154.252 203.517 159.201C205.163 162.052 205.286 164.979 203.865 167.442C201.513 171.515 195.272 173.758 186.291 173.758" fill="#171A21"/>
<path d="M183.356 133.531C183.037 133.531 182.724 133.375 182.537 133.087C182.245 132.635 182.373 132.031 182.825 131.738C187.556 128.672 188.025 124.673 186.458 122.256C185.625 120.97 184.263 120.143 182.622 119.927C180.682 119.671 178.502 120.286 176.319 121.7C175.867 121.993 175.264 121.864 174.971 121.412C174.677 120.961 174.806 120.357 175.258 120.064C180.853 116.438 185.951 117.888 188.095 121.195C189.244 122.968 189.524 125.124 188.885 127.265C188.192 129.592 186.463 131.704 183.886 133.375C183.722 133.48 183.538 133.531 183.356 133.531Z" fill="#171A21"/>
<path d="M180.427 149.923C178.988 149.784 177.645 149.675 176.519 149.594C175.04 149.486 174.107 147.937 174.726 146.59C180.323 134.41 175.041 123.979 171.79 119.243C173.539 120.406 175.173 121.736 176.669 123.23C179.105 126.01 181.028 129.225 182.419 132.827C182.434 132.879 182.453 132.93 182.477 132.98C184.319 137.818 185.207 143.347 185.094 149.446C183.892 149.324 182.643 149.259 181.351 149.259C180.921 149.259 180.556 149.537 180.427 149.923" fill="#B2B2D4"/>
<path d="M176.669 123.23C175.173 121.736 173.539 120.406 171.79 119.243C171.534 118.871 171.292 118.534 171.067 118.234C171.901 118.813 172.704 119.429 173.474 120.084C174.022 120.549 174.55 121.031 175.06 121.529C175.09 121.564 175.121 121.595 175.155 121.624C175.68 122.141 176.185 122.677 176.669 123.23" fill="#B2B2D4"/>
<path d="M186.067 149.558C185.746 149.517 185.422 149.479 185.094 149.446C185.207 143.347 184.319 137.818 182.477 132.98C182.495 133.016 182.515 133.052 182.537 133.087C182.724 133.375 183.037 133.531 183.356 133.531C183.47 133.531 183.584 133.511 183.694 133.471C185.336 138.116 186.19 143.479 186.067 149.558V149.558ZM182.419 132.827C181.028 129.225 179.105 126.01 176.669 123.23C176.185 122.677 175.68 122.141 175.155 121.624C175.334 121.776 175.56 121.857 175.79 121.857C175.971 121.857 176.155 121.807 176.319 121.7C176.375 121.664 176.432 121.628 176.488 121.592C177.515 122.668 178.475 123.826 179.358 125.064C179.357 125.063 179.356 125.063 179.356 125.062L179.786 127.048L182.825 131.738C182.825 131.738 182.825 131.738 182.825 131.738C182.456 131.978 182.302 132.425 182.419 132.827V132.827ZM175.06 121.529C174.55 121.031 174.022 120.549 173.474 120.084C172.704 119.429 171.901 118.813 171.067 118.234C170.24 117.128 169.669 116.526 169.669 116.526L170.162 116.478C171.917 117.562 173.564 118.807 175.083 120.209C174.778 120.529 174.72 121.026 174.971 121.412C174.998 121.454 175.027 121.493 175.06 121.529" fill="#171A21"/>
<path d="M190.315 151.397C187.474 150.716 183.701 150.24 180.427 149.923C180.556 149.537 180.921 149.259 181.351 149.259C182.643 149.259 183.892 149.324 185.094 149.446C185.422 149.479 185.746 149.517 186.067 149.558C186.061 149.883 186.051 150.209 186.039 150.538C187.541 150.737 188.969 151.028 190.315 151.397Z" fill="#171A21"/>
<path d="M183.356 133.531C183.037 133.531 182.724 133.375 182.537 133.087C182.515 133.052 182.495 133.016 182.477 132.98C182.453 132.93 182.434 132.879 182.419 132.827C182.302 132.425 182.456 131.978 182.825 131.738C182.825 131.738 182.825 131.738 182.825 131.738L183.356 132.556C183.356 132.556 183.356 132.556 183.357 132.556C183.473 132.857 183.585 133.162 183.694 133.471C183.584 133.511 183.47 133.531 183.356 133.531V133.531ZM175.79 121.857C175.56 121.857 175.334 121.776 175.155 121.624C175.121 121.595 175.09 121.564 175.06 121.529C175.027 121.493 174.998 121.454 174.971 121.412C174.72 121.026 174.778 120.529 175.083 120.209C175.565 120.655 176.033 121.115 176.488 121.592C176.432 121.628 176.375 121.664 176.319 121.7C176.155 121.807 175.971 121.857 175.79 121.857" fill="#171A21"/>
<path d="M188.642 171.752C195.498 168.822 197.035 160.94 195.823 156.13C200.513 159.207 202.831 163.396 201.846 166.976C199.851 169.734 195.147 171.428 188.642 171.752Z" fill="#433B78"/>
<path d="M201.846 166.976C202.831 163.396 200.513 159.207 195.823 156.13C195.652 155.453 195.427 154.836 195.154 154.303C198.333 155.95 200.611 158.068 201.828 160.176C203.111 162.399 203.235 164.633 202.177 166.467C202.076 166.64 201.966 166.81 201.846 166.976" fill="#807CAB"/>
<path d="M186.291 172.784H184.608C186.119 172.615 187.46 172.256 188.642 171.752C195.147 171.428 199.851 169.734 201.846 166.976C201.966 166.81 202.076 166.64 202.177 166.467C203.235 164.633 203.111 162.399 201.828 160.176C200.611 158.068 198.333 155.95 195.154 154.303C194.725 153.464 194.179 152.832 193.544 152.493C193.533 152.488 193.525 152.482 193.513 152.476C207.52 158.179 209.333 172.784 186.291 172.784" fill="#171A21"/>
<path d="M179.966 171.809H136.999C140.293 170.993 142.726 169.8 144.293 168.232C144.826 167.744 145.341 167.219 145.836 166.667C146.945 166.86 148.089 167.081 149.27 167.333C149.27 167.333 153.626 167.877 158.362 167.877C162.11 167.878 166.096 167.537 168.349 166.316C168.982 165.974 169.562 165.824 170.116 165.824C172.996 165.824 175.121 169.879 179.966 171.809" fill="#B2B2D4"/>
<path d="M144.293 168.232C144.794 167.731 145.206 167.192 145.531 166.614C145.633 166.631 145.733 166.649 145.836 166.667C145.341 167.219 144.826 167.744 144.293 168.232" fill="#433B78"/>
<path d="M136.999 171.809H115.361C115.007 171.797 114.66 171.78 114.319 171.759C116.195 169.835 121.751 165.566 134.085 165.566C137.393 165.566 141.187 165.872 145.531 166.614C145.206 167.192 144.794 167.731 144.293 168.232C142.726 169.8 140.293 170.993 136.999 171.809" fill="#433B78"/>
<path d="M184.535 172.784H115.346C114.722 172.765 114.122 172.728 113.543 172.682L113.538 172.679C113.538 172.679 113.773 172.319 114.319 171.759C114.66 171.78 115.007 171.797 115.361 171.809H136.999H179.966C181.27 172.328 182.77 172.693 184.535 172.784" fill="#171A21"/>
<path d="M186.291 172.935L186.284 172.635C186.807 172.61 187.282 172.603 187.695 172.615L187.696 172.915C187.267 172.928 186.808 172.935 186.291 172.935Z" fill="#171A21"/>
<path d="M183.805 131.044C183.004 129.149 182.057 127.359 180.966 125.681C181.042 125.687 181.118 125.69 181.194 125.69C183.215 125.69 185.156 123.665 185.547 121.599C185.631 121.648 185.714 121.699 185.795 121.751C186.024 121.899 186.241 122.06 186.444 122.234C186.449 122.242 186.454 122.249 186.458 122.256C187.909 124.495 187.615 128.089 183.805 131.044" fill="#433B78"/>
<path d="M186.444 122.234C186.241 122.06 186.024 121.899 185.795 121.751C185.714 121.699 185.631 121.648 185.547 121.599C185.569 121.483 185.586 121.366 185.598 121.25C185.92 121.538 186.203 121.867 186.444 122.234" fill="#807CAB"/>
<path d="M182.987 131.632C181.99 129.234 180.77 127.045 179.358 125.064C179.877 125.447 180.422 125.64 180.966 125.681C182.057 127.359 183.004 129.149 183.805 131.044C183.549 131.243 183.277 131.439 182.987 131.632" fill="#171A21"/>
<path d="M183.357 132.556C183.237 132.244 183.114 131.936 182.987 131.632C183.277 131.439 183.549 131.243 183.805 131.044C187.615 128.089 187.909 124.495 186.458 122.256C186.454 122.249 186.449 122.242 186.444 122.234C186.203 121.867 185.92 121.538 185.598 121.25C185.644 120.807 185.614 120.368 185.495 119.951C189.238 122.368 189.727 128.428 183.357 132.556" fill="#171A21"/>
<path d="M182.825 131.738L179.786 127.048L179.356 125.062C179.356 125.063 179.357 125.063 179.358 125.064C180.77 127.045 181.99 129.234 182.987 131.632C182.934 131.667 182.88 131.702 182.825 131.738" fill="#171A21"/>
<path d="M183.356 132.556L182.825 131.738C182.88 131.702 182.934 131.667 182.987 131.631C183.114 131.936 183.237 132.244 183.357 132.555C183.356 132.555 183.356 132.556 183.356 132.556" fill="#171A21"/>
</svg>
